<?xml version="1.0" encoding="utf-8"?>
<!-- Generator: Adobe Illustrator 24.2.1, SVG Export Plug-In . SVG Version: 6.00 Build 0)  -->
<svg version="1.1" id="Layer_1" xmlns="http://www.w3.org/2000/svg" xmlns:xlink="http://www.w3.org/1999/xlink" x="0px" y="0px"
	 viewBox="0 0 886 133" style="enable-background:new 0 0 886 133;" xml:space="preserve">
<style type="text/css">
	.st0{fill:#FFFFFF;}
</style>
<g>
	<path class="st0" d="M19.3,116.1c-1.9-2-2.9-4.3-2.9-7.1V29c0-2.8,1-5.1,2.9-7.1c2-2,4.3-2.9,7.1-2.9c2.8,0,5.1,1,7.1,2.9
		c2,2,2.9,4.3,2.9,7.1v80c0,2.8-1,5.1-2.9,7.1c-2,1.9-4.3,2.9-7.1,2.9C23.6,119,21.3,118,19.3,116.1z M99.3,116.1
		c-2-2-2.9-4.3-2.9-7.1V79h-50l10-20h40V29c0-2.8,1-5.1,2.9-7.1c2-2,4.3-2.9,7.1-2.9c2.8,0,5.1,1,7.1,2.9c2,2,2.9,4.3,2.9,7.1v80
		c0,2.8-1,5.1-2.9,7.1c-2,1.9-4.3,2.9-7.1,2.9C103.6,119,101.3,118,99.3,116.1z"/>
</g>
<g>
	<path class="st0" d="M142,39c-2.8,0-5.1-1-7.1-2.9c-1.9-2-2.9-4.3-2.9-7.1c0-2.8,1-5.1,2.9-7.1c2-2,4.3-2.9,7.1-2.9h60
		c2.8,0,5.1,1,7.1,2.9c1.9,2,2.9,4.3,2.9,7.1c0,2.8-1,5.1-2.9,7.1c-2,2-4.3,2.9-7.1,2.9H142z M142,79c-2.8,0-5.1-1-7.1-2.9
		c-1.9-2-2.9-4.3-2.9-7.1c0-2.8,1-5.1,2.9-7.1c2-2,4.3-2.9,7.1-2.9h60c2.8,0,5.1,1,7.1,2.9c1.9,2,2.9,4.3,2.9,7.1
		c0,2.8-1,5.1-2.9,7.1c-2,2-4.3,2.9-7.1,2.9H142z M142,119c-2.8,0-5.1-1-7.1-2.9c-1.9-2-2.9-4.3-2.9-7.1c0-2.8,1-5.1,2.9-7.1
		c2-2,4.3-2.9,7.1-2.9h60c2.8,0,5.1,1,7.1,2.9c1.9,2,2.9,4.3,2.9,7.1c0,2.8-1,5.1-2.9,7.1c-2,1.9-4.3,2.9-7.1,2.9H142z"/>
</g>
<g>
	<path class="st0" d="M227.6,119V29c0-2.8,1-5.1,2.9-7.1c2-2,4.3-3,7.1-3h10v30l30-30h30l-60,60v40H227.6z M277.6,119
		c-2.8,0-5.1-1-7.1-2.9c-2-2-2.9-4.3-2.9-7.1V79l20-20v40h20v20H277.6z"/>
</g>
<g>
	<path class="st0" d="M323.1,119V29c0-2.8,1-5.1,2.9-7.1c2-2,4.3-3,7.1-3h10v80h60l-10,20H323.1z"/>
</g>
<g>
	<path class="st0" d="M392.7,119l50-100l50,100h-60l10-20h20l-20-40l-30,60H392.7z"/>
</g>
<g>
	<path class="st0" d="M510.3,119V39h-20v0h-20V29c0-2.8,1-5.1,2.9-7.1c2-2,4.3-3,7.1-3h70l20,20h-40v80H510.3z"/>
</g>
<g>
	<path class="st0" d="M584.9,39c-2.8,0-5.1-1-7.1-2.9c-1.9-2-2.9-4.3-2.9-7.1c0-2.8,1-5.1,2.9-7.1c2-2,4.3-2.9,7.1-2.9h60
		c2.8,0,5.1,1,7.1,2.9c1.9,2,2.9,4.3,2.9,7.1c0,2.8-1,5.1-2.9,7.1c-2,2-4.3,2.9-7.1,2.9H584.9z M584.9,79c-2.8,0-5.1-1-7.1-2.9
		c-1.9-2-2.9-4.3-2.9-7.1c0-2.8,1-5.1,2.9-7.1c2-2,4.3-2.9,7.1-2.9h60c2.8,0,5.1,1,7.1,2.9c1.9,2,2.9,4.3,2.9,7.1
		c0,2.8-1,5.1-2.9,7.1c-2,2-4.3,2.9-7.1,2.9H584.9z M584.9,119c-2.8,0-5.1-1-7.1-2.9c-1.9-2-2.9-4.3-2.9-7.1c0-2.8,1-5.1,2.9-7.1
		c2-2,4.3-2.9,7.1-2.9h60c2.8,0,5.1,1,7.1,2.9c1.9,2,2.9,4.3,2.9,7.1c0,2.8-1,5.1-2.9,7.1c-2,1.9-4.3,2.9-7.1,2.9H584.9z"/>
</g>
<g>
	<path class="st0" d="M670.5,119V29c0-2.8,1-5.1,2.9-7.1c2-2,4.3-3,7.1-3h30l10,20h-30v60h60l10,20H670.5z"/>
</g>
<g>
	<path class="st0" d="M771.9,116.1c-1.9-2-2.9-4.3-2.9-7.1V29c0-2.8,1-5.1,2.9-7.1c2-2,4.3-2.9,7.1-2.9c2.8,0,5.1,1,7.1,2.9
		c2,2,2.9,4.3,2.9,7.1v80c0,2.8-1,5.1-2.9,7.1c-2,1.9-4.3,2.9-7.1,2.9C776.3,119,773.9,118,771.9,116.1z M851.9,116.1
		c-2-2-2.9-4.3-2.9-7.1V79h-50l10-20h40V29c0-2.8,1-5.1,2.9-7.1c2-2,4.3-2.9,7.1-2.9c2.8,0,5.1,1,7.1,2.9c2,2,2.9,4.3,2.9,7.1v80
		c0,2.8-1,5.1-2.9,7.1c-2,1.9-4.3,2.9-7.1,2.9C856.2,119,853.9,118,851.9,116.1z"/>
</g>
</svg>
